<?xml version="1.0" encoding="UTF-8"?> <svg xmlns="http://www.w3.org/2000/svg" width="215.43" height="42.56" viewBox="0 0 215.43 42.56"><g id="Logotipo_Coaktion_oficial" data-name="Logotipo Coaktion oficial" transform="translate(-279 -56.441)"><path id="Caminho_1599" data-name="Caminho 1599" d="M2255.378-345.7a14.181,14.181,0,0,0-13.9,14.412c0,8.153,6.108,14.539,13.9,14.539a13.52,13.52,0,0,0,9.875-4.268,14.809,14.809,0,0,0,4.028-10.271A14.18,14.18,0,0,0,2255.378-345.7Zm8.843,14.412c0,5.422-3.885,9.669-8.843,9.669-4.995,0-8.908-4.247-8.908-9.669,0-5.315,3.913-9.479,8.908-9.479a8.495,8.495,0,0,1,6.257,2.754A9.79,9.79,0,0,1,2264.221-331.288Z" transform="translate(-1805.716 414.18)" fill="#353535"></path><path id="Caminho_1600" data-name="Caminho 1600" d="M1608.6-345.7a14.181,14.181,0,0,0-13.9,14.412c0,8.153,6.108,14.539,13.9,14.539a13.52,13.52,0,0,0,9.875-4.268,14.81,14.81,0,0,0,4.028-10.271A14.18,14.18,0,0,0,1608.6-345.7Zm8.843,14.412c0,5.422-3.884,9.669-8.843,9.669-4.995,0-8.907-4.247-8.907-9.669,0-5.315,3.913-9.479,8.907-9.479a8.5,8.5,0,0,1,6.257,2.754A9.79,9.79,0,0,1,1617.446-331.288Z" transform="translate(-1284.622 414.18)" fill="#9789e5"></path><path id="Caminho_1601" data-name="Caminho 1601" d="M1940.12-382.348a.932.932,0,0,1-.534-.579.886.886,0,0,1,.1-.752l4.894-7.694a2.66,2.66,0,0,0-.54-3.483l.015-.026-2.577-1.581-7.513,11.986a1.8,1.8,0,0,1-1.531.847h-4.49a1.808,1.808,0,0,1-1.807-1.806v-19.546a2.672,2.672,0,0,0-2.668-2.67h-3l0,40.99h5.675v-10.895a1.117,1.117,0,0,1,1.115-1.116h6.62a7.865,7.865,0,0,1,4.058,1.038,7.467,7.467,0,0,1,2.745,2.8,8.1,8.1,0,0,1,.986,4.01v4.166h5.731v-4.166a12.845,12.845,0,0,0-2.3-7.557A11.267,11.267,0,0,0,1940.12-382.348Z" transform="translate(-1547.081 464.094)" fill="#353535"></path><path id="Caminho_1602" data-name="Caminho 1602" d="M1784.656-331.224c0-1.627,0-8.4.006-14.184v-.291h-4.9v3.429a13.6,13.6,0,0,0-4.971-2.813l-.085-.026c-.173-.053-.347-.1-.522-.148l-.149-.038q-.233-.058-.468-.107l-.191-.04c-.145-.029-.292-.054-.438-.078l-.216-.035c-.142-.021-.285-.038-.428-.054-.075-.009-.149-.019-.224-.026-.15-.015-.3-.025-.452-.034-.067,0-.134-.011-.2-.014-.218-.01-.436-.017-.656-.017a13.806,13.806,0,0,0-13.239,10.011c-.015.049-.032.1-.047.148-.006.021-.011.043-.018.065a14.848,14.848,0,0,0-.6,4.189c0,.021,0,.042,0,.064s0,.042,0,.063a14.848,14.848,0,0,0,.6,4.189c.006.022.011.043.018.065.015.05.031.1.047.148a13.806,13.806,0,0,0,13.239,10.011c.219,0,.438-.006.656-.016.067,0,.134-.01.2-.014.151-.01.3-.02.452-.034.075-.007.15-.017.224-.026.143-.016.286-.033.428-.054.072-.01.144-.023.216-.035.146-.024.292-.049.438-.078l.191-.04q.235-.05.468-.108l.149-.038c.175-.046.349-.1.522-.148l.085-.026a13.6,13.6,0,0,0,4.971-2.813v3.428h4.9v-.292C1784.66-322.829,1784.658-329.6,1784.656-331.224Zm-6.1,4.577a9.424,9.424,0,0,1-1.536,2.211,8.5,8.5,0,0,1-6.257,2.754,8.634,8.634,0,0,1-6.682-3.151,10.14,10.14,0,0,1-2.224-6.392,10.14,10.14,0,0,1,2.224-6.392,8.634,8.634,0,0,1,6.682-3.151,8.495,8.495,0,0,1,6.257,2.754,9.421,9.421,0,0,1,1.536,2.211,10.512,10.512,0,0,1,1.049,4.577A10.512,10.512,0,0,1,1778.552-326.647Z" transform="translate(-1415.268 414.18)" fill="#353535"></path><path id="Caminho_1603" data-name="Caminho 1603" d="M2088.472-372.242a2.463,2.463,0,0,0-2.449-2.119h-6.638a.571.571,0,0,1-.57-.571v-4.037a2.481,2.481,0,0,0-2.479-2.477h-3.2l0,6.514a.572.572,0,0,1-.572.571h-4.3v2.564l0,.291h.027a2.467,2.467,0,0,0,2.446,2.1h1.823a.572.572,0,0,1,.572.572v14.968a8.3,8.3,0,0,0,2.214,6.071,8.218,8.218,0,0,0,6.1,2.246h6.932V-350.5H2082.4a3.48,3.48,0,0,1-2.639-.989,3.784,3.784,0,0,1-.944-2.706v-14.635a.572.572,0,0,1,.57-.572h9.116v-2.544l0-.292Z" transform="translate(-1666.167 442.979)" fill="#353535"></path><path id="Caminho_1604" data-name="Caminho 1604" d="M2191.383-403.381a3.591,3.591,0,0,0-2.614,1.11,3.591,3.591,0,0,0-1.11,2.615,3.586,3.586,0,0,0,1.109,2.613,3.587,3.587,0,0,0,2.614,1.11,3.586,3.586,0,0,0,2.613-1.109,3.587,3.587,0,0,0,1.11-2.614,3.591,3.591,0,0,0-1.11-2.615A3.59,3.59,0,0,0,2191.383-403.381Z" transform="translate(-1762.359 460.652)" fill="#353535"></path><path id="Caminho_1605" data-name="Caminho 1605" d="M2194.8-344.99h-2.865v28.813h5.731v-25.947A2.869,2.869,0,0,0,2194.8-344.99Z" transform="translate(-1765.801 413.607)" fill="#353535"></path><path id="Caminho_1606" data-name="Caminho 1606" d="M2430.025-342.284h0a12.074,12.074,0,0,0-4.763-4.506,14.673,14.673,0,0,0-6.973-1.613,14.716,14.716,0,0,0-6.944,1.612,12.021,12.021,0,0,0-4.792,4.507,12.929,12.929,0,0,0-1.729,6.737v16.62h5.676v-16.565a8.019,8.019,0,0,1,1.091-4.248,7.513,7.513,0,0,1,2.879-2.746,7.981,7.981,0,0,1,3.819-.962,7.991,7.991,0,0,1,3.82.962,7.514,7.514,0,0,1,2.878,2.746,8.028,8.028,0,0,1,1.093,4.248l-.007,16.273.007.292h5.669l.006-16.62A12.941,12.941,0,0,0,2430.025-342.284Z" transform="translate(-1937.324 416.358)" fill="#353535"></path><path id="Caminho_1607" data-name="Caminho 1607" d="M1462.626-331.615l-.194-.173-.51-.456-.01-.008-.087-.078,0,0a2.4,2.4,0,0,0-1.363-.54c-.029,0-.059,0-.088,0l-.061,0c-.034,0-.068,0-.1,0a2.471,2.471,0,0,0-1.772.924s-3.274,3.624-7.6,3.624a10,10,0,0,1-9.93-10.279,9.928,9.928,0,0,1,10-10.068,10.02,10.02,0,0,1,6.916,2.727l.038.039a2.74,2.74,0,0,0,1.794.859,2.356,2.356,0,0,0,1.692-.632l0,0,.082-.083.01-.009.483-.484.184-.184a2.7,2.7,0,0,0,.2-.2l1.611-1.611-2.582-2.568a14.822,14.822,0,0,0-10.436-3.848,16.1,16.1,0,0,0-11.316,4.607,15.975,15.975,0,0,0-4.816,11.525,15.97,15.97,0,0,0,4.818,11.551,16.121,16.121,0,0,0,11.315,4.58,15.943,15.943,0,0,0,11.185-4.792l2.456-2.71-1.7-1.517A2.772,2.772,0,0,0,1462.626-331.615Z" transform="translate(-1155.769 421.404)" fill="#9789e5"></path></g></svg> 